<svg width="66" height="66" viewBox="0 0 66 66" fill="none" xmlns="http://www.w3.org/2000/svg">
<path d="M10 0.5H56C58.3712 0.5 60.0994 0.501173 61.4199 0.678711C62.7259 0.854322 63.5578 1.19454 64.1816 1.81836C64.8055 2.44218 65.1457 3.27407 65.3213 4.58008C65.4988 5.90059 65.5 7.62884 65.5 10V56C65.5 58.3712 65.4988 60.0994 65.3213 61.4199C65.1457 62.7259 64.8055 63.5578 64.1816 64.1816C63.5578 64.8055 62.7259 65.1457 61.4199 65.3213C60.0994 65.4988 58.3712 65.5 56 65.5H10C7.62884 65.5 5.90059 65.4988 4.58008 65.3213C3.27407 65.1457 2.44218 64.8055 1.81836 64.1816C1.19454 63.5578 0.854322 62.7259 0.678711 61.4199C0.501173 60.0994 0.5 58.3712 0.5 56V10C0.5 7.62884 0.501173 5.90059 0.678711 4.58008C0.854323 3.27407 1.19454 2.44218 1.81836 1.81836C2.44218 1.19454 3.27407 0.854323 4.58008 0.678711C5.90059 0.501173 7.62884 0.5 10 0.5Z" fill="#0C1F0E" stroke="#143017"/>
<g clip-path="url(#clip0_192_861)">
<path fill-rule="evenodd" clip-rule="evenodd" d="M28.9375 23.25V20H31.375V23.25H28.9375ZM21.5763 23.2987L24.0138 25.7362L25.7362 24.0138L23.2987 21.5763L21.5763 23.2987ZM26.8997 26.8997L27.7935 29.3535L32.6685 42.7597L33.7572 45.7611L34.9435 42.7955L36.6952 38.4194L41.8888 43.6112L43.6112 41.8888L38.4194 36.6952L42.7955 34.9435L45.7611 33.7572L42.7597 32.6685L29.3535 27.7935L26.8997 26.8997ZM38.9264 33.8661L36.4434 34.859C36.0858 35.002 35.7609 35.2162 35.4886 35.4886C35.2162 35.7609 35.002 36.0858 34.859 36.4434L33.8678 38.9264L30.9753 30.9753L38.9264 33.8678V33.8661ZM20 31.375H23.25V28.9375H20V31.375Z" fill="#83F891"/>
</g>
<defs>
<clipPath id="clip0_192_861">
<rect width="26" height="26" fill="white" transform="translate(20 20)"/>
</clipPath>
</defs>
</svg>
