<svg viewBox="0 0 1259.51 200.96" xmlns="http://www.w3.org/2000/svg"><g fill="#222"><path d="m151.91 83.46c-12.72-12.72-23.09-23.6-31.11-32.63s-13.78-16.41-17.28-22.12c-4.56-7.15-7.58-15.45-9.09-24.55-.41-2.49-2.52-4.33-5.04-4.33h-32.14s-20.14 0-20.14 0h-31.25c-2.82 0-5.11 2.29-5.11 5.11v191.09c0 2.82 2.29 5.1 5.1 5.1h46.29c2.82 0 5.1-2.29 5.1-5.1v-117.9c0-4.78 6-6.95 9.04-3.25 1.63 1.99 3.34 4.02 5.15 6.1 9.58 11.06 21.66 23.78 36.23 38.16 9.4 9.4 17.24 17.93 23.51 25.58s11.15 14.43 14.66 20.33c5.27 9.55 8.51 20.03 9.7 31.46.27 2.62 2.45 4.62 5.08 4.62h46.41c2.93 0 5.27-2.46 5.1-5.38-1.11-19.55-5.21-36.44-12.37-50.61-8.48-17.33-24.43-37.89-47.84-61.67z"/><path d="m207.24-.17h-51.54c-2.82 0-5.1 2.29-5.1 5.1v29.91c0 15.66 12.7 28.36 28.36 28.36h28.28c2.82 0 5.1-2.29 5.1-5.1v-53.16c0-2.82-2.29-5.1-5.1-5.1z"/><path d="m306.89 71.36h.63c7.31-11.49 17.13-17.55 31.75-17.55 22.14 0 36.98 16.71 36.98 40.11v68.07c0 1.06-.86 1.92-1.92 1.92h-24.58c-1.06 0-1.92-.86-1.92-1.92v-63.89c0-11.49-6.69-19.64-18.59-19.64-12.53 0-21.73 10.03-21.73 24.65v58.88c0 1.06-.86 1.92-1.92 1.92h-24.58c-1.06 0-1.92-.86-1.92-1.92v-103.34c0-1.06.86-1.92 1.92-1.92h23.95c1.06 0 1.92.86 1.92 1.92v12.71z"/><path d="m454.29 152h-.42c-5.43 8.15-13.16 14.41-31.55 14.41-21.94 0-37.39-11.49-37.39-32.8 0-23.61 19.22-31.13 43.04-34.47 17.76-2.51 25.91-3.97 25.91-12.12 0-7.73-6.06-12.74-17.97-12.74-12.64 0-19.11 4.29-20.49 13.4-.14.94-.94 1.64-1.89 1.64h-21.51c-1.14 0-2.02-.99-1.91-2.12 1.77-17.91 15.86-33.19 46.02-33.19 32.17 0 45.13 14.42 45.13 39.48v54.53c0 5.26 1.57 10.35 2.68 13.29.47 1.25-.45 2.59-1.79 2.59h-23.45c-.72 0-1.37-.41-1.71-1.05-1.29-2.45-2.14-6.73-2.67-10.86zm.21-25.9v-12.89c0-1.42-1.44-2.39-2.74-1.82-4.85 2.11-11.19 3.5-17.1 4.89-14.51 3.27-21.83 6.54-22.13 16.08-.23 7.27 5.67 13.39 12.91 14.04 18.69 1.68 29.07-9.07 29.07-20.3z"/><path d="m491.94 56.74h23.53c1.06 0 1.92.86 1.92 1.92v12.5h.63c5.85-9.82 16.3-17.34 31.13-17.34 13.58 0 24.44 7.52 29.67 18.8h.42c7.31-11.7 18.59-18.8 32.17-18.8 22.56 0 35.31 14.62 35.31 38.02v70.16c0 1.06-.86 1.92-1.92 1.92h-24.58c-1.06 0-1.92-.86-1.92-1.92v-65.35c0-12.12-6.06-18.38-16.5-18.38-11.91 0-19.22 9.19-19.22 23.4v60.34c0 1.06-.86 1.92-1.92 1.92h-24.58c-1.06 0-1.92-.86-1.92-1.92v-65.35c0-12.12-6.06-18.38-16.5-18.38-11.49 0-19.22 9.19-19.22 23.4v60.34c0 1.06-.86 1.92-1.92 1.92h-24.58c-1.06 0-1.92-.86-1.92-1.92v-103.37c0-1.06.86-1.92 1.92-1.92z"/><path d="m655.4 110.22c0-31.75 21.52-56.41 52.85-56.41 33.88 0 52.22 25.43 52.84 62.6.02 1.06-.85 1.95-1.92 1.95h-73.45c-1.22 0-2.19 1.11-1.98 2.31 2.63 15.14 11.7 24.43 27.02 24.43 10.52 0 16.89-4.53 20.19-11.97.31-.71.99-1.19 1.77-1.19h24.28c1.24 0 2.19 1.17 1.87 2.37-4.84 17.96-21.48 32.73-47.9 32.73-35.52 0-55.57-24.86-55.57-56.83zm30.76-11.49h43.17c1.16 0 2.06-1.02 1.91-2.17-1.61-12.4-10.31-20.81-22.57-20.81-14.18 0-21.5 7.99-24.38 20.64-.27 1.2.65 2.34 1.87 2.34z"/><path d="m771.71 134.51h26.81c1.06 0 1.93.82 1.93 1.84v26.99c0 1.02-.86 1.84-1.93 1.84h-26.81c-1.06 0-1.93-.82-1.93-1.84v-26.99c0-1.02.86-1.84 1.93-1.84z"/><path d="m811.05 131.95h22.61c.9 0 1.68.63 1.87 1.51 2.35 11.04 10.92 13.53 23.12 13.53s19.64-4.8 19.64-12.33c0-10.24-13.58-11.28-28.2-14.21-19.22-3.76-38.02-8.98-38.02-32.38s19.22-34.26 43.66-34.26c27.22 0 42.77 13.04 45.69 33.3.17 1.16-.73 2.21-1.9 2.21h-21.87c-.93 0-1.73-.67-1.88-1.59-1.74-10.29-8.92-14.08-20.46-14.08s-18.38 4.18-18.38 11.91c0 9.19 14.21 10.03 29.46 13.16 17.97 3.76 37.81 8.77 37.81 33.84 0 21.52-18.38 34.47-45.13 34.47-30.13 0-47.34-11.55-49.93-32.93-.14-1.15.75-2.17 1.91-2.17z"/><path d="m908.6 56.74h14.58v-20.91c0-1.06.86-1.92 1.92-1.92h20.63c1.06 0 1.92.86 1.92 1.92v20.91h16.47c1.06 0 1.92.86 1.92 1.92v21.61c0 1.06-.86 1.92-1.92 1.92h-16.47v50.18c0 7.94 4.39 10.65 10.65 10.65 2.11 0 4.65-.07 6.38-.13 1.08-.04 1.98.83 1.98 1.92v17.13c0 1.01-.78 1.85-1.79 1.91-1.98.12-5.83.27-12.64.27-13.79 0-29.04-5.43-29.04-25.7v-56.24h-14.58c-1.06 0-1.92-.86-1.92-1.92v-21.61c0-1.06.86-1.92 1.92-1.92z"/><path d="m968.21 110.43c0-31.96 23.03-56.62 56.62-56.62s56.62 24.65 56.62 56.62-23.03 56.62-56.62 56.62-56.62-24.65-56.62-56.62zm84.08 0c0-20.89-9.93-35.1-27.46-35.1s-27.46 14.21-27.46 35.1 9.72 34.89 27.46 34.89 27.46-14 27.46-34.89z"/><path d="m1151.06 79.13c0 1.09-.92 1.96-2.01 1.9-17.58-.99-30.51 8.91-30.51 30.65v50.31c0 1.06-.86 1.92-1.92 1.92h-24.58c-1.06 0-1.92-.86-1.92-1.92v-103.34c0-1.06.86-1.92 1.92-1.92h23.53c1.06 0 1.92.86 1.92 1.92v15.21h.63c6.48-12.12 13.79-18.38 26.32-18.38 2.26 0 3.86.11 5.21.4.87.19 1.48.98 1.48 1.87l-.07 21.37z"/><path d="m1153.06 110.22c0-31.75 21.52-56.41 52.85-56.41 33.88 0 52.22 25.43 52.84 62.6.02 1.06-.85 1.95-1.92 1.95h-73.45c-1.22 0-2.19 1.11-1.98 2.31 2.63 15.14 11.7 24.43 27.02 24.43 10.52 0 16.89-4.53 20.19-11.97.31-.71.99-1.19 1.77-1.19h24.28c1.24 0 2.19 1.17 1.87 2.37-4.84 17.96-21.48 32.73-47.9 32.73-35.52 0-55.57-24.86-55.57-56.83zm30.76-11.49h43.17c1.16 0 2.06-1.02 1.91-2.17-1.61-12.4-10.31-20.81-22.57-20.81-14.18 0-21.5 7.99-24.38 20.64-.27 1.2.65 2.34 1.87 2.34z"/></g></svg>